{
	"asset":{
		"generator":"Khronos glTF Blender I/O v4.4.55",
		"version":"2.0"
	},
	"extensionsUsed":[
		"KHR_materials_specular",
		"KHR_materials_ior"
	],
	"scene":0,
	"scenes":[
		{
			"name":"Scene",
			"nodes":[
				29
			]
		}
	],
	"nodes":[
		{
			"mesh":0,
			"name":"Cylinder.002_0"
		},
		{
			"children":[
				0
			],
			"name":"Cylinder.002",
			"rotation":[
				0.011283284984529018,
				-0.009512757882475853,
				-0.004985629580914974,
				0.9998787641525269
			],
			"scale":[
				0.8671000599861145,
				0.8670939207077026,
				0.8670976161956787
			],
			"translation":[
				0.11286000162363052,
				1.496109962463379,
				3.313380002975464
			]
		},
		{
			"name":"Spot.001"
		},
		{
			"children":[
				2
			],
			"name":"Spot.005",
			"rotation":[
				0.5620999336242676,
				0.44090837240219116,
				-0.32403111457824707,
				0.62019944190979
			],
			"scale":[
				0.10180046409368515,
				0.10179616510868073,
				0.10179412364959717
			],
			"translation":[
				0.3428899645805359,
				-1.5631800889968872,
				-0.0047299982979893684
			]
		},
		{
			"name":"Spot.003"
		},
		{
			"children":[
				4
			],
			"name":"Spot.008",
			"rotation":[
				0.3800559341907501,
				0.061048176139593124,
				-0.8520342707633972,
				0.35477936267852783
			],
			"scale":[
				0.10180208832025528,
				0.10179707407951355,
				0.10179691016674042
			],
			"translation":[
				-1.025359869003296,
				-0.6221699714660645,
				0.4225099980831146
			]
		},
		{
			"name":"Spot.002"
		},
		{
			"children":[
				6
			],
			"name":"Spot.009",
			"rotation":[
				-0.07999121397733688,
				0.45935574173927307,
				0.3015810251235962,
				0.8316504955291748
			],
			"scale":[
				0.10179663449525833,
				0.10180245339870453,
				0.1018034964799881
			],
			"translation":[
				0.8999899625778198,
				0.5358800292015076,
				0.5688600540161133
			]
		},
		{
			"name":"Sun.001",
			"translation":[
				0,
				0,
				5.185604095458984e-06
			]
		},
		{
			"children":[
				8
			],
			"name":"Sun.002",
			"rotation":[
				-0.09421007335186005,
				0.04938273876905441,
				-0.16399778425693512,
				0.9807091951370239
			],
			"scale":[
				0.10180092602968216,
				0.10179387032985687,
				0.10179384052753448
			],
			"translation":[
				0.5071399807929993,
				0.5544299483299255,
				3.164140224456787
			]
		},
		{
			"children":[
				3,
				5,
				7,
				9
			],
			"name":"Empty",
			"scale":[
				9.823390007019043,
				9.823390007019043,
				9.823390007019043
			],
			"translation":[
				0.047540001571178436,
				1.3818700313568115,
				4.313159942626953
			]
		},
		{
			"mesh":1,
			"name":"NurbsPath.004_0",
			"translation":[
				0,
				0,
				-2.868473529815674e-06
			]
		},
		{
			"children":[
				11
			],
			"name":"NurbsPath.004",
			"rotation":[
				-0.14267751574516296,
				-0.23881220817565918,
				-0.5626331567764282,
				0.7784958481788635
			],
			"scale":[
				0.3553522229194641,
				0.35535332560539246,
				0.355349063873291
			],
			"translation":[
				0.6316199898719788,
				0.08973000198602676,
				4.162519931793213
			]
		},
		{
			"mesh":2,
			"name":"Plane.005_0"
		},
		{
			"children":[
				13
			],
			"name":"Plane.005",
			"rotation":[
				0.7149998545646667,
				-0.010252322070300579,
				0.003201605984941125,
				0.6990422010421753
			],
			"scale":[
				0.7856613397598267,
				1.0115408897399902,
				1.0115381479263306
			],
			"translation":[
				0.09877000004053116,
				2.14697003364563,
				3.0848898887634277
			]
		},
		{
			"mesh":3,
			"name":"Plane.006_0"
		},
		{
			"children":[
				15
			],
			"name":"Plane.006"
		},
		{
			"mesh":4,
			"name":"Sphere.007_0"
		},
		{
			"children":[
				17
			],
			"name":"Sphere.007"
		},
		{
			"mesh":5,
			"name":"Sphere.008_0"
		},
		{
			"mesh":6,
			"name":"Sphere.008_1"
		},
		{
			"children":[
				19,
				20
			],
			"name":"Sphere.008",
			"rotation":[
				0.011281068436801434,
				-0.009513076394796371,
				-0.004985377192497253,
				0.9998787641525269
			],
			"scale":[
				0.9177917838096619,
				0.917799174785614,
				0.917799711227417
			],
			"translation":[
				0.10751999914646149,
				1.439769983291626,
				3.1944100856781006
			]
		},
		{
			"mesh":7,
			"name":"Sphere.009_0"
		},
		{
			"mesh":8,
			"name":"Sphere.009_0.001"
		},
		{
			"mesh":9,
			"name":"Sphere.009_0.002"
		},
		{
			"mesh":10,
			"name":"Sphere.009_0.003"
		},
		{
			"mesh":11,
			"name":"Sphere.009_0.004"
		},
		{
			"children":[
				22,
				23,
				24,
				25,
				26
			],
			"name":"Sphere.009"
		},
		{
			"children":[
				1,
				10,
				12,
				14,
				16,
				18,
				21,
				27
			],
			"name":"Root"
		},
		{
			"children":[
				28
			],
			"name":"Sketchfab_model",
			"rotation":[
				-0.70710688829422,
				0,
				0,
				0.7071066498756409
			]
		}
	],
	"animations":[
		{
			"channels":[
				{
					"sampler":0,
					"target":{
						"node":10,
						"path":"translation"
					}
				},
				{
					"sampler":1,
					"target":{
						"node":10,
						"path":"rotation"
					}
				},
				{
					"sampler":2,
					"target":{
						"node":10,
						"path":"scale"
					}
				}
			],
			"name":"EmptyAction",
			"samplers":[
				{
					"input":36,
					"interpolation":"STEP",
					"output":37
				},
				{
					"input":38,
					"interpolation":"LINEAR",
					"output":39
				},
				{
					"input":36,
					"interpolation":"STEP",
					"output":40
				}
			]
		}
	],
	"materials":[
		{
			"doubleSided":true,
			"extensions":{
				"KHR_materials_specular":{
					"specularColorFactor":[
						0.6700000166893005,
						0.6700000166893005,
						0.6700000166893005
					]
				},
				"KHR_materials_ior":{
					"ior":1000
				}
			},
			"name":"tuta_metallico",
			"pbrMetallicRoughness":{
				"baseColorFactor":[
					0.6600000262260437,
					0.6600000262260437,
					0.6600000262260437,
					1
				],
				"metallicFactor":0,
				"roughnessFactor":0.20999999344348907
			}
		},
		{
			"doubleSided":true,
			"name":"tuta_metallico.001",
			"pbrMetallicRoughness":{
				"baseColorFactor":[
					0.43490809202194214,
					0.641046404838562,
					0.8464433550834656,
					1
				],
				"metallicFactor":0,
				"roughnessFactor":0.41999998688697815
			}
		},
		{
			"doubleSided":true,
			"extensions":{
				"KHR_materials_specular":{
					"specularColorFactor":[
						0.05000000074505806,
						0.05000000074505806,
						0.05000000074505806
					]
				},
				"KHR_materials_ior":{
					"ior":1000
				}
			},
			"name":"Root",
			"pbrMetallicRoughness":{
				"metallicFactor":0,
				"roughnessFactor":0.6000000238418579
			}
		},
		{
			"doubleSided":true,
			"name":"specchio",
			"pbrMetallicRoughness":{
				"baseColorFactor":[
					0,
					0,
					0,
					1
				],
				"metallicFactor":0,
				"roughnessFactor":0.12999999523162842
			}
		},
		{
			"doubleSided":true,
			"extensions":{
				"KHR_materials_specular":{
					"specularColorFactor":[
						0.3199999928474426,
						0.3199999928474426,
						0.3199999928474426
					]
				},
				"KHR_materials_ior":{
					"ior":1000
				}
			},
			"name":"Material.001",
			"pbrMetallicRoughness":{
				"baseColorFactor":[
					0.6800000071525574,
					0.6800000071525574,
					0.6800000071525574,
					1
				],
				"metallicFactor":0,
				"roughnessFactor":0.6600000262260437
			}
		}
	],
	"meshes":[
		{
			"name":"Cylinder.002_0",
			"primitives":[
				{
					"attributes":{
						"POSITION":0,
						"NORMAL":1
					},
					"indices":2,
					"material":0
				}
			]
		},
		{
			"name":"NurbsPath.004_0",
			"primitives":[
				{
					"attributes":{
						"POSITION":3,
						"NORMAL":4
					},
					"indices":5,
					"material":1
				}
			]
		},
		{
			"name":"Plane.005_0",
			"primitives":[
				{
					"attributes":{
						"POSITION":6,
						"NORMAL":7
					},
					"indices":8,
					"material":0
				}
			]
		},
		{
			"name":"Plane.006_0",
			"primitives":[
				{
					"attributes":{
						"POSITION":9,
						"NORMAL":10
					},
					"indices":11,
					"material":2
				}
			]
		},
		{
			"name":"Sphere.007_0",
			"primitives":[
				{
					"attributes":{
						"POSITION":12,
						"NORMAL":13
					},
					"indices":14,
					"material":2
				}
			]
		},
		{
			"name":"Sphere.008_0",
			"primitives":[
				{
					"attributes":{
						"POSITION":15,
						"NORMAL":16
					},
					"indices":17,
					"material":0
				}
			]
		},
		{
			"name":"Sphere.008_1",
			"primitives":[
				{
					"attributes":{
						"POSITION":18,
						"NORMAL":19
					},
					"indices":20,
					"material":3
				}
			]
		},
		{
			"name":"Sphere.009_0",
			"primitives":[
				{
					"attributes":{
						"POSITION":21,
						"NORMAL":22
					},
					"indices":23,
					"material":4
				}
			]
		},
		{
			"name":"Sphere.009_0.001",
			"primitives":[
				{
					"attributes":{
						"POSITION":24,
						"NORMAL":25
					},
					"indices":26,
					"material":4
				}
			]
		},
		{
			"name":"Sphere.009_0.002",
			"primitives":[
				{
					"attributes":{
						"POSITION":27,
						"NORMAL":28
					},
					"indices":29,
					"material":4
				}
			]
		},
		{
			"name":"Sphere.009_0.003",
			"primitives":[
				{
					"attributes":{
						"POSITION":30,
						"NORMAL":31
					},
					"indices":32,
					"material":4
				}
			]
		},
		{
			"name":"Sphere.009_0.004",
			"primitives":[
				{
					"attributes":{
						"POSITION":33,
						"NORMAL":34
					},
					"indices":35,
					"material":4
				}
			]
		}
	],
	"accessors":[
		{
			"bufferView":0,
			"componentType":5126,
			"count":47842,
			"max":[
				1.4093600511550903,
				1.5506000518798828,
				1.1072100400924683
			],
			"min":[
				-1.4093600511550903,
				-1.326259970664978,
				-0.9886999726295471
			],
			"type":"VEC3"
		},
		{
			"bufferView":1,
			"componentType":5126,
			"count":47842,
			"type":"VEC3"
		},
		{
			"bufferView":2,
			"componentType":5123,
			"count":103974,
			"type":"SCALAR"
		},
		{
			"bufferView":3,
			"componentType":5126,
			"count":24384,
			"max":[
				-0.4342299997806549,
				4.023260116577148,
				4.095359802246094
			],
			"min":[
				-9.588569641113281,
				-4.373960018157959,
				-2.433069944381714
			],
			"type":"VEC3"
		},
		{
			"bufferView":4,
			"componentType":5126,
			"count":24384,
			"type":"VEC3"
		},
		{
			"bufferView":5,
			"componentType":5123,
			"count":218880,
			"type":"SCALAR"
		},
		{
			"bufferView":6,
			"componentType":5126,
			"count":16619,
			"max":[
				1.0442099571228027,
				1.213670015335083,
				0.031139999628067017
			],
			"min":[
				-1.0442099571228027,
				-1.5522799491882324,
				-0.5839599967002869
			],
			"type":"VEC3"
		},
		{
			"bufferView":7,
			"componentType":5126,
			"count":16619,
			"type":"VEC3"
		},
		{
			"bufferView":8,
			"componentType":5123,
			"count":90240,
			"type":"SCALAR"
		},
		{
			"bufferView":9,
			"componentType":5126,
			"count":3216,
			"max":[
				1.9084099531173706,
				1.744670033454895,
				0.8294399976730347
			],
			"min":[
				-1.598230004310608,
				1.1469000577926636,
				0.34213998913764954
			],
			"type":"VEC3"
		},
		{
			"bufferView":10,
			"componentType":5126,
			"count":3216,
			"type":"VEC3"
		},
		{
			"bufferView":11,
			"componentType":5123,
			"count":16896,
			"type":"SCALAR"
		},
		{
			"bufferView":12,
			"componentType":5126,
			"count":14732,
			"max":[
				2.790940046310425,
				1.5617799758911133,
				3.2695000171661377
			],
			"min":[
				2.4343600273132324,
				1.220829963684082,
				3.065310001373291
			],
			"type":"VEC3"
		},
		{
			"bufferView":13,
			"componentType":5126,
			"count":14732,
			"type":"VEC3"
		},
		{
			"bufferView":14,
			"componentType":5123,
			"count":88083,
			"type":"SCALAR"
		},
		{
			"bufferView":15,
			"componentType":5126,
			"count":3920,
			"max":[
				0.6147099733352661,
				0.6392099857330322,
				2.0622000694274902
			],
			"min":[
				-0.6147099733352661,
				-0.5050899982452393,
				0.8453500270843506
			],
			"type":"VEC3"
		},
		{
			"bufferView":16,
			"componentType":5126,
			"count":3920,
			"type":"VEC3"
		},
		{
			"bufferView":17,
			"componentType":5123,
			"count":23088,
			"type":"SCALAR"
		},
		{
			"bufferView":18,
			"componentType":5126,
			"count":981,
			"max":[
				0.546280026435852,
				-0.01181000005453825,
				2.002840042114258
			],
			"min":[
				-0.546280026435852,
				-0.5465800166130066,
				1.1480300426483154
			],
			"type":"VEC3"
		},
		{
			"bufferView":19,
			"componentType":5126,
			"count":981,
			"type":"VEC3"
		},
		{
			"bufferView":20,
			"componentType":5123,
			"count":5616,
			"type":"SCALAR"
		},
		{
			"bufferView":21,
			"componentType":5126,
			"count":65813,
			"max":[
				2.275749921798706,
				2.244499921798706,
				4.1087799072265625
			],
			"min":[
				-1.9282900094985962,
				0.4123600125312805,
				0.5674300193786621
			],
			"type":"VEC3"
		},
		{
			"bufferView":22,
			"componentType":5126,
			"count":65813,
			"type":"VEC3"
		},
		{
			"bufferView":23,
			"componentType":5125,
			"count":347541,
			"type":"SCALAR"
		},
		{
			"bufferView":24,
			"componentType":5126,
			"count":66855,
			"max":[
				2.365989923477173,
				2.240380048751831,
				4.075429916381836
			],
			"min":[
				-2.49072003364563,
				0.35975998640060425,
				0.5810800194740295
			],
			"type":"VEC3"
		},
		{
			"bufferView":25,
			"componentType":5126,
			"count":66855,
			"type":"VEC3"
		},
		{
			"bufferView":26,
			"componentType":5125,
			"count":330309,
			"type":"SCALAR"
		},
		{
			"bufferView":27,
			"componentType":5126,
			"count":67224,
			"max":[
				2.4660398960113525,
				2.2415599822998047,
				4.086009979248047
			],
			"min":[
				-2.5707099437713623,
				0.37985000014305115,
				0.5687000155448914
			],
			"type":"VEC3"
		},
		{
			"bufferView":28,
			"componentType":5126,
			"count":67224,
			"type":"VEC3"
		},
		{
			"bufferView":29,
			"componentType":5125,
			"count":329007,
			"type":"SCALAR"
		},
		{
			"bufferView":30,
			"componentType":5126,
			"count":66510,
			"max":[
				2.46478009223938,
				2.2444798946380615,
				4.103149890899658
			],
			"min":[
				-2.5679800510406494,
				0.35975998640060425,
				0.5680599808692932
			],
			"type":"VEC3"
		},
		{
			"bufferView":31,
			"componentType":5126,
			"count":66510,
			"type":"VEC3"
		},
		{
			"bufferView":32,
			"componentType":5125,
			"count":221577,
			"type":"SCALAR"
		},
		{
			"bufferView":33,
			"componentType":5126,
			"count":574,
			"max":[
				1.5656299591064453,
				1.9417699575424194,
				4.05771017074585
			],
			"min":[
				-1.4437700510025024,
				0.5382099747657776,
				1.4031399488449097
			],
			"type":"VEC3"
		},
		{
			"bufferView":34,
			"componentType":5126,
			"count":574,
			"type":"VEC3"
		},
		{
			"bufferView":35,
			"componentType":5123,
			"count":642,
			"type":"SCALAR"
		},
		{
			"bufferView":36,
			"componentType":5126,
			"count":2,
			"max":[
				0.7916666666666666
			],
			"min":[
				0.041666666666666664
			],
			"type":"SCALAR"
		},
		{
			"bufferView":37,
			"componentType":5126,
			"count":2,
			"type":"VEC3"
		},
		{
			"bufferView":38,
			"componentType":5126,
			"count":19,
			"max":[
				0.7916666666666666
			],
			"min":[
				0.041666666666666664
			],
			"type":"SCALAR"
		},
		{
			"bufferView":39,
			"componentType":5126,
			"count":19,
			"type":"VEC4"
		},
		{
			"bufferView":40,
			"componentType":5126,
			"count":2,
			"type":"VEC3"
		}
	],
	"bufferViews":[
		{
			"buffer":0,
			"byteLength":574104,
			"byteOffset":0,
			"target":34962
		},
		{
			"buffer":0,
			"byteLength":574104,
			"byteOffset":574104,
			"target":34962
		},
		{
			"buffer":0,
			"byteLength":207948,
			"byteOffset":1148208,
			"target":34963
		},
		{
			"buffer":0,
			"byteLength":292608,
			"byteOffset":1356156,
			"target":34962
		},
		{
			"buffer":0,
			"byteLength":292608,
			"byteOffset":1648764,
			"target":34962
		},
		{
			"buffer":0,
			"byteLength":437760,
			"byteOffset":1941372,
			"target":34963
		},
		{
			"buffer":0,
			"byteLength":199428,
			"byteOffset":2379132,
			"target":34962
		},
		{
			"buffer":0,
			"byteLength":199428,
			"byteOffset":2578560,
			"target":34962
		},
		{
			"buffer":0,
			"byteLength":180480,
			"byteOffset":2777988,
			"target":34963
		},
		{
			"buffer":0,
			"byteLength":38592,
			"byteOffset":2958468,
			"target":34962
		},
		{
			"buffer":0,
			"byteLength":38592,
			"byteOffset":2997060,
			"target":34962
		},
		{
			"buffer":0,
			"byteLength":33792,
			"byteOffset":3035652,
			"target":34963
		},
		{
			"buffer":0,
			"byteLength":176784,
			"byteOffset":3069444,
			"target":34962
		},
		{
			"buffer":0,
			"byteLength":176784,
			"byteOffset":3246228,
			"target":34962
		},
		{
			"buffer":0,
			"byteLength":176166,
			"byteOffset":3423012,
			"target":34963
		},
		{
			"buffer":0,
			"byteLength":47040,
			"byteOffset":3599180,
			"target":34962
		},
		{
			"buffer":0,
			"byteLength":47040,
			"byteOffset":3646220,
			"target":34962
		},
		{
			"buffer":0,
			"byteLength":46176,
			"byteOffset":3693260,
			"target":34963
		},
		{
			"buffer":0,
			"byteLength":11772,
			"byteOffset":3739436,
			"target":34962
		},
		{
			"buffer":0,
			"byteLength":11772,
			"byteOffset":3751208,
			"target":34962
		},
		{
			"buffer":0,
			"byteLength":11232,
			"byteOffset":3762980,
			"target":34963
		},
		{
			"buffer":0,
			"byteLength":789756,
			"byteOffset":3774212,
			"target":34962
		},
		{
			"buffer":0,
			"byteLength":789756,
			"byteOffset":4563968,
			"target":34962
		},
		{
			"buffer":0,
			"byteLength":1390164,
			"byteOffset":5353724,
			"target":34963
		},
		{
			"buffer":0,
			"byteLength":802260,
			"byteOffset":6743888,
			"target":34962
		},
		{
			"buffer":0,
			"byteLength":802260,
			"byteOffset":7546148,
			"target":34962
		},
		{
			"buffer":0,
			"byteLength":1321236,
			"byteOffset":8348408,
			"target":34963
		},
		{
			"buffer":0,
			"byteLength":806688,
			"byteOffset":9669644,
			"target":34962
		},
		{
			"buffer":0,
			"byteLength":806688,
			"byteOffset":10476332,
			"target":34962
		},
		{
			"buffer":0,
			"byteLength":1316028,
			"byteOffset":11283020,
			"target":34963
		},
		{
			"buffer":0,
			"byteLength":798120,
			"byteOffset":12599048,
			"target":34962
		},
		{
			"buffer":0,
			"byteLength":798120,
			"byteOffset":13397168,
			"target":34962
		},
		{
			"buffer":0,
			"byteLength":886308,
			"byteOffset":14195288,
			"target":34963
		},
		{
			"buffer":0,
			"byteLength":6888,
			"byteOffset":15081596,
			"target":34962
		},
		{
			"buffer":0,
			"byteLength":6888,
			"byteOffset":15088484,
			"target":34962
		},
		{
			"buffer":0,
			"byteLength":1284,
			"byteOffset":15095372,
			"target":34963
		},
		{
			"buffer":0,
			"byteLength":8,
			"byteOffset":15096656
		},
		{
			"buffer":0,
			"byteLength":24,
			"byteOffset":15096664
		},
		{
			"buffer":0,
			"byteLength":76,
			"byteOffset":15096688
		},
		{
			"buffer":0,
			"byteLength":304,
			"byteOffset":15096764
		},
		{
			"buffer":0,
			"byteLength":24,
			"byteOffset":15097068
		}
	],
	"buffers":[
		{
			"byteLength":15097092,
			"uri":"scene.bin"
		}
	]
}
